<?xml version="1.0" encoding="UTF-8"?>
<svg width="90px" height="110px" viewBox="0 0 90 110" version="1.1" xmlns="http://www.w3.org/2000/svg" xmlns:xlink="http://www.w3.org/1999/xlink">
    <title>apple-seeklogo.com</title>
    <g id="Page-1" stroke="none" stroke-width="1" fill="none" fill-rule="evenodd">
        <g id="Extra-Large" transform="translate(-435.000000, -451.000000)" fill="#E7E7E7" fill-rule="nonzero">
            <g id="apple-seeklogo.com" transform="translate(435.000000, 451.000000)">
                <path d="M75.1652557,58.2414375 C75.3205781,74.9518788 89.8391538,80.5126925 90,80.5836692 C89.8772386,80.9758485 87.6801737,88.5083734 82.3509246,96.2889336 C77.7440232,103.015622 72.9626671,109.71767 65.4306184,109.856475 C58.0296273,109.992711 55.6497956,105.471983 47.1883676,105.471983 C38.7294954,105.471983 36.0853942,109.717658 29.0795318,109.992711 C21.809194,110.267562 16.2729081,102.718688 11.6277215,96.0166408 C2.13584526,82.3073771 -5.11791219,57.2774825 4.62205055,40.3818954 C9.46065625,31.9914782 18.1076104,26.6783157 27.493106,26.5420696 C34.6323918,26.4060208 41.3710291,31.3404204 45.735365,31.3404204 C50.0969338,31.3404204 58.2858123,25.4063725 66.8944782,26.2778624 C70.4983598,26.4277119 80.6145149,27.7321953 87.110376,37.2311008 C86.5869697,37.5552542 75.0397324,44.2708966 75.1652557,58.2414533 M60.4591667,17.5098899 C64.3736362,12.8742286 67.0082998,6.42095944 66.2895352,0 C60.6471215,0.221861695 53.8241756,3.67849417 49.7769979,8.31160505 C46.1499494,12.4144405 42.9734704,18.9812903 43.8305394,25.2751651 C50.1196719,25.7512057 56.5445047,22.1484992 60.4591667,17.5098974" id="Shape"></path>
            </g>
        </g>
    </g>
</svg>