<?xml version="1.0" encoding="UTF-8"?>
<svg width="107px" height="110px" viewBox="0 0 107 110" version="1.1" xmlns="http://www.w3.org/2000/svg" xmlns:xlink="http://www.w3.org/1999/xlink">
    <title>Google_ G _Logo</title>
    <g id="Page-1" stroke="none" stroke-width="1" fill="none" fill-rule="evenodd">
        <g id="Extra-Large" transform="translate(-1387.000000, -451.000000)" fill="#585858" fill-rule="nonzero">
            <g id="Google_-G-_Logo" transform="translate(1387.000000, 451.000000)">
                <path d="M107,56.2344454 C107,52.6726781 106.683203,49.2912534 106.140122,46 L55,46 L55,66.3336339 L84.281114,66.3336339 C82.9686684,73.006312 79.1218451,78.6420198 73.4194952,82.4743012 L73.4194952,96 L90.8885988,96 C101.116623,86.5770965 107,72.6907124 107,56.2344454 Z" id="Path"></path>
                <path d="M54.8385193,110 C69.6131974,110 81.97103,104.994851 91,96.5139032 L73.3980687,82.6107106 C68.473176,85.9474768 62.2258584,87.9866117 54.8385193,87.9866117 C40.5654506,87.9866117 28.4812232,78.208033 24.1491416,65 L6,65 L6,79.3202884 C14.9833691,97.4871267 33.4517167,110 54.8385193,110 Z" id="Path"></path>
                <path d="M24,65.6412639 C22.8614801,62.295539 22.2694497,58.7174721 22.2694497,55 C22.2694497,51.2825279 22.9070209,47.704461 24,44.3587361 L24,30 L5.87476281,30 C2.14041746,37.527881 0,45.9851301 0,55 C0,64.0148699 2.14041746,72.472119 5.87476281,80 L24,65.6412639 Z" id="Path"></path>
                <path d="M54.175654,22.0133883 C62.3027229,22.0133883 69.5573946,24.8403708 75.29685,30.3553038 L91,14.5056643 C81.4954618,5.51493306 69.0523225,0 54.175654,0 C32.6412173,0 14.0453817,12.5128733 5,30.6797116 L23.2744261,45 C27.6364122,31.791967 39.8040577,22.0133883 54.175654,22.0133883 Z" id="Path"></path>
            </g>
        </g>
    </g>
</svg>